<?xml version="1.0" standalone="no"?>
<!DOCTYPE svg PUBLIC "-//W3C//DTD SVG 20010904//EN"
 "http://www.w3.org/TR/2001/REC-SVG-20010904/DTD/svg10.dtd">
<svg version="1.0" xmlns="http://www.w3.org/2000/svg"
 width="1024.000000pt" height="886.000000pt" viewBox="0 0 1024.000000 886.000000"
 preserveAspectRatio="xMidYMid meet">

<g transform="translate(0.000000,886.000000) scale(0.100000,-0.100000)"
fill="#000000" stroke="none">
<path d="M4840 7450 c-156 -19 -230 -32 -400 -75 -272 -68 -459 -140 -689
-264 -743 -400 -1276 -1092 -1465 -1904 -44 -187 -76 -469 -76 -668 0 -178 39
-514 76 -664 105 -417 296 -811 553 -1140 106 -136 364 -397 491 -497 816
-640 1830 -823 2780 -500 619 210 1170 631 1529 1166 174 259 293 510 381 801
81 269 109 451 117 756 9 349 -22 603 -113 914 -45 153 -59 191 -132 355 -326
733 -968 1316 -1735 1576 -133 45 -399 110 -527 130 -123 18 -670 28 -790 14z
m735 -64 c812 -113 1520 -539 1990 -1196 177 -248 330 -566 424 -885 51 -175
101 -547 101 -754 0 -192 -29 -454 -70 -644 -11 -51 -45 -168 -76 -262 -237
-721 -782 -1348 -1476 -1696 -297 -149 -707 -269 -998 -293 -194 -16 -215 -17
-200 -6 13 8 12 10 -5 12 -11 1 7 4 40 8 41 4 2 7 -120 8 -169 2 -378 15 -435
27 -18 4 -21 3 -11 -4 29 -19 -36 -23 -116 -7 -114 24 -315 81 -307 88 3 4 -5
4 -18 1 -21 -6 -22 -5 -8 12 14 17 14 17 -5 6 -28 -18 -130 20 -395 148 -219
105 -484 285 -666 453 -306 281 -537 595 -700 951 -172 377 -254 760 -254
1187 0 441 93 858 274 1227 169 344 334 574 590 820 410 396 865 638 1431 762
81 18 265 44 385 55 97 9 520 -4 625 -18z m-792 -5713 c-7 -2 -21 -2 -30 0
-10 3 -4 5 12 5 17 0 24 -2 18 -5z m162 -16 c7 -6 -3 -8 -30 -3 -22 3 -56 6
-75 7 -32 1 -33 2 -10 8 31 9 101 2 115 -12z m135 4 c0 -5 -11 -11 -24 -13
-17 -4 -23 -1 -19 9 6 14 43 18 43 4z m-63 -7 c-3 -3 -12 -4 -19 -1 -8 3 -5 6
6 6 11 1 17 -2 13 -5z"/>
<path d="M4880 6805 c-295 -38 -566 -123 -820 -257 -212 -113 -376 -234 -560
-414 l-115 -112 -105 -22 c-58 -12 -109 -26 -113 -30 -5 -4 -19 -77 -32 -161
-21 -140 -27 -163 -70 -249 -160 -323 -235 -649 -235 -1020 0 -271 35 -495
115 -736 79 -240 205 -479 363 -689 87 -116 333 -365 442 -447 95 -72 280
-188 373 -234 40 -20 90 -53 112 -74 160 -151 532 -382 814 -506 140 -62 124
-62 272 4 271 121 625 343 810 509 33 29 65 53 72 53 22 0 278 158 376 233
386 294 671 684 819 1118 93 273 126 467 126 754 0 284 -27 464 -109 720 -24
77 -73 201 -109 276 -62 131 -66 143 -87 285 -12 82 -26 154 -31 160 -4 6 -34
16 -65 23 -162 34 -150 28 -263 139 -130 129 -214 198 -355 293 -275 185 -586
309 -930 370 -153 28 -532 35 -695 14z m239 -42 c0 -5 -40 -37 -90 -73 l-89
-65 -133 -22 c-347 -57 -672 -200 -971 -426 -75 -56 -90 -63 -205 -94 -68 -18
-126 -32 -128 -29 -14 13 242 235 375 324 222 150 492 268 742 326 198 46 501
82 499 59z m412 -19 c394 -63 743 -210 1049 -441 105 -79 278 -238 269 -248
-13 -12 -234 56 -274 85 -121 88 -301 204 -375 244 -203 107 -427 182 -652
221 -117 19 -142 27 -180 54 -23 17 -64 46 -90 64 -26 17 -48 36 -48 41 0 12
179 0 301 -20z m-141 -218 c318 -210 674 -370 1045 -472 72 -19 157 -44 190
-54 34 -10 148 -37 255 -60 107 -23 202 -46 211 -51 18 -9 36 -129 65 -419 23
-232 23 -637 0 -845 -68 -622 -253 -1154 -552 -1589 -203 -297 -533 -618 -833
-813 -195 -127 -448 -260 -463 -245 -6 6 49 39 144 88 348 180 643 410 899
702 98 111 183 222 188 244 1 4 15 22 31 39 16 18 27 36 24 40 -2 4 -29 7 -59
5 -30 -1 -55 1 -55 6 0 4 13 8 29 8 17 0 33 5 37 12 4 6 3 8 -4 4 -6 -3 -13
-2 -17 3 -3 6 -13 7 -23 4 -16 -6 -16 -5 1 14 9 11 17 26 17 33 0 8 -15 -8
-32 -35 -125 -186 -264 -345 -439 -504 -173 -156 -319 -264 -515 -379 -75 -45
-341 -172 -359 -172 -6 0 -92 40 -191 89 -168 84 -405 230 -500 307 -23 19
-48 33 -55 32 -8 -2 -13 2 -12 9 5 23 -38 35 -128 37 -84 2 -87 1 -72 -16 12
-14 31 -18 81 -18 76 0 80 -9 5 -11 l-50 -2 76 -69 c42 -37 101 -85 131 -105
30 -20 73 -51 95 -69 23 -18 92 -62 155 -99 63 -37 137 -80 163 -96 27 -16 54
-29 60 -29 21 -1 112 -54 114 -67 2 -9 -5 -9 -27 -1 -17 5 -28 13 -26 16 2 4
-6 8 -17 9 -30 2 -279 140 -412 228 -198 131 -420 323 -570 491 -416 468 -666
1017 -770 1692 -36 233 -45 361 -45 627 0 295 20 534 66 807 l6 37 107 25 c58
14 140 32 181 41 287 60 732 205 974 317 203 95 476 258 611 367 l49 40 46
-35 c25 -20 101 -72 170 -118z m-546 24 c-24 -24 -269 -156 -406 -218 -133
-61 -455 -177 -543 -197 -29 -6 -29 -6 -12 13 35 39 214 151 342 215 138 69
348 145 487 176 94 22 147 26 132 11z m861 -25 c128 -33 312 -103 435 -165
128 -64 359 -215 347 -227 -6 -5 -170 45 -319 98 -174 62 -357 146 -515 235
-170 96 -171 97 -98 89 33 -4 101 -17 150 -30z m1655 -1281 c120 -346 144
-797 65 -1194 -62 -309 -245 -686 -463 -954 -87 -107 -267 -281 -367 -356
-116 -87 -209 -150 -214 -145 -2 2 32 44 76 92 69 76 168 206 224 293 9 14 51
63 93 110 171 189 306 402 401 630 61 147 90 248 131 450 25 123 28 155 28
355 -1 186 -4 238 -23 335 -12 64 -26 188 -31 280 -5 91 -11 208 -15 260 l-6
95 31 -70 c17 -38 49 -120 70 -181z m-4264 214 c-3 -13 -11 -117 -17 -233 -6
-115 -19 -255 -29 -310 -30 -160 -43 -337 -36 -470 29 -502 219 -966 545
-1332 50 -56 123 -148 163 -205 72 -103 120 -164 213 -266 49 -54 49 -55 15
-36 -77 42 -269 192 -363 283 -372 360 -603 803 -683 1311 -14 87 -18 170 -18
340 0 199 3 243 27 382 15 86 39 194 53 240 35 119 115 318 126 318 6 0 8 -10
4 -22z m4 -719 c1 -323 138 -914 288 -1239 102 -221 104 -228 75 -193 -53 60
-171 268 -226 398 -128 299 -187 608 -173 905 7 159 15 217 27 198 5 -7 9 -38
9 -69z m4184 -6 c9 -114 7 -369 -4 -448 -13 -90 -55 -276 -87 -385 -47 -162
-207 -478 -294 -580 l-30 -35 15 35 c7 19 36 82 64 140 159 336 278 821 308
1253 4 53 10 97 14 97 4 0 10 -34 14 -77z m-804 -1667 c0 -3 -4 -8 -10 -11 -5
-3 -10 -1 -10 4 0 6 5 11 10 11 6 0 10 -2 10 -4z m60 0 c0 -2 -9 -6 -20 -9
-11 -3 -18 -1 -14 4 5 9 34 13 34 5z m-22 -68 c-4 -12 -12 -13 -55 -9 -16 2
-15 3 2 11 30 13 57 12 53 -2z m-151 -84 c-3 -3 -12 -4 -19 -1 -8 3 -5 6 6 6
11 1 17 -2 13 -5z m-2060 -410 c-3 -3 -12 -4 -19 -1 -8 3 -5 6 6 6 11 1 17 -2
13 -5z m993 -539 c0 -7 -30 -13 -34 -7 -3 4 4 9 15 9 10 1 19 0 19 -2z m-174
-14 c-3 -5 1 -11 9 -15 8 -3 15 -2 15 2 0 10 42 8 58 -2 8 -4 11 -3 10 4 -3
14 29 23 37 11 2 -5 -13 -16 -35 -26 -39 -17 -42 -17 -80 0 -28 13 -37 21 -28
27 17 10 20 10 14 -1z"/>
<path d="M5040 6362 c-269 -178 -580 -323 -960 -448 -41 -14 -83 -29 -93 -35
-10 -5 -21 -7 -26 -5 -4 3 -82 -15 -172 -40 -90 -24 -211 -54 -269 -65 -58
-12 -108 -24 -112 -27 -12 -11 -41 -309 -33 -329 5 -10 9 -171 10 -358 1 -350
10 -461 60 -732 153 -830 577 -1487 1247 -1930 148 -98 444 -253 483 -253 34
0 270 115 400 195 692 423 1152 1092 1319 1915 77 380 95 828 51 1240 -25 231
-21 222 -80 236 -28 7 -128 30 -222 53 -343 82 -681 197 -942 322 -207 98
-504 281 -526 324 -9 19 -18 15 -135 -63z m-565 -332 c-53 -24 -70 -24 -25 0
19 11 42 19 50 19 8 0 -3 -9 -25 -19z m-425 -149 c-8 -5 -26 -11 -40 -15 -21
-5 -20 -3 5 9 32 15 60 20 35 6z m-343 -97 c-3 -3 -12 -4 -19 -1 -8 3 -5 6 6
6 11 1 17 -2 13 -5z m-40 -10 c-3 -3 -12 -4 -19 -1 -8 3 -5 6 6 6 11 1 17 -2
13 -5z m-87 -24 c-14 -4 -34 -8 -45 -8 -16 0 -15 2 5 8 14 4 34 8 45 8 16 0
15 -2 -5 -8z m-173 -192 c-3 -8 -6 -5 -6 6 -1 11 2 17 5 13 3 -3 4 -12 1 -19z
m-10 -40 c-3 -8 -6 -5 -6 6 -1 11 2 17 5 13 3 -3 4 -12 1 -19z m-10 -60 c-3
-8 -6 -5 -6 6 -1 11 2 17 5 13 3 -3 4 -12 1 -19z m1426 -173 c-32 -36 -81 -79
-110 -96 -60 -34 -181 -125 -233 -175 -30 -28 -167 -90 -177 -80 -4 4 59 83
99 126 93 101 253 211 384 265 97 40 103 33 37 -40z m854 -1 c62 -31 148 -85
192 -120 79 -64 208 -206 191 -212 -4 -2 -32 4 -62 13 -37 10 -77 35 -133 81
-44 37 -119 92 -166 123 -55 36 -105 79 -139 120 -52 62 -52 64 -24 57 16 -3
79 -31 141 -62z m-706 -125 c46 -12 108 -33 137 -47 l52 -25 -2 -161 -3 -161
-102 -70 c-56 -38 -140 -100 -186 -137 l-85 -67 -153 51 c-85 28 -158 54 -164
59 -12 12 -8 209 6 279 9 45 19 63 58 100 76 74 132 116 211 159 87 48 112 50
231 20z m658 -9 c63 -34 176 -117 232 -170 20 -19 42 -53 49 -75 16 -57 25
-267 12 -292 -8 -14 -56 -35 -168 -72 l-156 -53 -37 35 c-20 19 -94 76 -166
126 -71 50 -140 98 -153 106 -22 16 -22 20 -20 173 l3 157 45 22 c58 29 214
71 264 72 24 1 58 -10 95 -29z m-441 -485 c-21 -19 -202 -145 -209 -145 -25 0
-12 23 34 57 133 101 172 125 175 108 2 -9 2 -18 0 -20z m-575 -186 l153 -50
27 -107 c15 -59 46 -156 68 -215 l41 -109 -68 -100 c-38 -55 -82 -116 -99
-135 l-30 -34 -80 21 c-44 11 -116 38 -161 60 -78 38 -81 41 -111 102 -38 77
-83 217 -89 278 -4 28 0 61 10 88 27 75 152 252 177 252 6 0 78 -23 162 -51z
m1391 -21 c72 -97 116 -190 116 -248 -1 -107 -67 -306 -120 -359 -30 -30 -153
-82 -250 -106 l-65 -17 -21 25 c-46 53 -174 235 -174 247 0 7 18 60 39 119 35
94 67 203 85 283 6 25 17 31 144 71 126 41 165 53 184 56 4 0 32 -32 62 -71z
m-1850 -181 c23 -34 45 -85 61 -145 14 -51 43 -135 64 -187 32 -76 40 -109 43
-175 3 -80 3 -81 -15 -59 -66 81 -132 235 -167 384 -19 80 -37 235 -27 235 2
0 21 -24 41 -53z m2101 -140 c-26 -153 -72 -272 -159 -407 l-35 -55 -1 72 c0
61 6 88 44 185 25 62 56 153 71 203 14 49 40 112 58 139 l32 51 3 -45 c2 -25
-4 -89 -13 -143z m-730 -314 c52 -71 94 -133 95 -138 1 -26 -82 -146 -145
-211 -67 -70 -72 -73 -130 -81 -89 -12 -210 -10 -298 6 l-79 14 -66 73 c-65
71 -132 174 -132 203 0 7 41 69 92 137 l92 124 238 0 238 0 95 -127z m-42
-502 c20 -7 37 -16 37 -20 0 -10 -128 -39 -229 -51 -86 -10 -222 -1 -306 21
-22 6 -58 15 -80 21 l-40 10 42 17 c34 13 82 16 290 15 173 0 259 -4 286 -13z"/>
<path d="M4450 3879 c0 -6 -8 -8 -17 -5 -10 4 -4 -5 12 -18 33 -28 41 -31 50
-16 3 6 -1 10 -10 10 -9 0 -13 4 -10 10 3 6 -1 7 -10 4 -11 -5 -14 -2 -9 10 3
9 3 16 0 16 -3 0 -6 -5 -6 -11z"/>
<path d="M5509 3603 c-13 -16 -12 -17 4 -4 9 7 17 15 17 17 0 8 -8 3 -21 -13z"/>
<path d="M4851 3590 c-1 -23 108 -127 151 -145 26 -10 71 -15 152 -15 122 0
146 4 146 26 0 8 4 14 10 14 5 0 19 10 32 23 13 12 35 28 51 36 20 11 24 17
15 23 -19 11 -46 10 -50 -3 -5 -16 -391 -16 -396 0 -2 6 -7 9 -12 6 -5 -3 -25
5 -46 17 -32 19 -37 20 -31 5 3 -9 4 -17 1 -17 -2 0 -9 10 -14 23 -5 13 -9 16
-9 7z m426 -146 c-3 -3 -12 -4 -19 -1 -8 3 -5 6 6 6 11 1 17 -2 13 -5z"/>
<path d="M5470 3592 c0 -6 6 -12 13 -15 6 -3 2 -4 -10 -4 -12 1 -19 5 -16 11
3 5 1 6 -5 2 -14 -8 -9 -53 4 -47 5 3 17 12 27 21 16 15 16 18 2 30 -9 7 -15
8 -15 2z"/>
<path d="M6692 3496 c-11 -25 -11 -26 8 -16 10 5 22 15 26 22 4 6 3 8 -4 4 -5
-3 -12 -1 -14 5 -2 6 -9 -1 -16 -15z"/>
<path d="M6744 3495 c-18 -14 -18 -14 7 -15 15 0 29 7 33 15 7 19 -14 19 -40
0z"/>
<path d="M3650 3480 c0 -5 5 -10 11 -10 5 0 7 5 4 10 -3 6 -8 10 -11 10 -2 0
-4 -4 -4 -10z"/>
<path d="M6652 3422 c-16 -29 -18 -39 -8 -39 8 0 12 6 8 15 -4 11 -1 14 11 9
9 -3 19 -2 22 4 4 5 3 9 -2 8 -20 -3 -25 2 -13 16 7 9 11 18 8 20 -2 3 -14
-12 -26 -33z"/>
<path d="M6688 3383 c6 -2 18 -2 25 0 6 3 1 5 -13 5 -14 0 -19 -2 -12 -5z"/>
<path d="M6738 3383 c6 -2 18 -2 25 0 6 3 1 5 -13 5 -14 0 -19 -2 -12 -5z"/>
<path d="M6536 3222 c-3 -5 1 -9 9 -9 8 0 12 4 9 9 -3 4 -7 8 -9 8 -2 0 -6 -4
-9 -8z"/>
<path d="M4178 2633 c17 -2 47 -2 65 0 17 2 3 4 -33 4 -36 0 -50 -2 -32 -4z"/>
<path d="M4290 2633 c8 -3 29 -17 45 -32 l30 -26 -29 33 c-17 17 -37 32 -45
31 -14 0 -14 -1 -1 -6z"/>
<path d="M7333 3477 c-49 -96 -109 -198 -174 -294 -30 -44 -29 -55 2 -27 20
18 43 10 35 -13 -4 -9 -2 -11 6 -7 11 7 100 -34 106 -49 15 -33 57 -67 83 -67
19 0 29 -5 29 -15 0 -9 17 -26 38 -38 l37 -22 -30 -3 c-28 -4 -45 -16 -45 -36
0 -4 6 -6 14 -3 21 8 43 -20 27 -36 -10 -9 -11 -8 -6 4 4 10 2 20 -4 24 -6 3
-11 0 -11 -9 0 -8 -3 -22 -6 -30 -5 -13 -2 -15 12 -9 17 6 18 5 4 -12 -8 -10
-10 -16 -4 -12 32 19 221 311 288 445 38 75 107 234 104 237 -2 2 -38 6 -80
10 -55 5 -78 4 -78 -4 0 -15 -123 -14 -189 1 -31 7 -51 17 -51 25 0 8 -5 11
-11 8 -6 -4 -8 -13 -5 -20 3 -9 -2 -11 -16 -7 -16 4 -19 2 -13 -9 8 -12 6 -12
-8 0 -9 7 -17 19 -17 25 0 7 3 6 8 -2 6 -8 9 -2 9 18 0 16 -1 30 -1 30 -1 0
-24 -46 -53 -103z"/>
<path d="M2974 3558 c3 -9 -2 -19 -11 -22 -15 -6 -14 -17 2 -61 8 -18 7 -18
-12 2 -22 25 -102 38 -218 35 -75 -2 -166 14 -177 32 -5 8 -11 7 -19 -1 -9 -9
-16 -10 -26 -2 -17 15 -17 15 11 -61 56 -156 205 -423 327 -587 64 -86 81
-105 78 -85 -1 4 0 10 1 15 1 4 3 13 4 20 0 6 10 13 21 15 11 1 30 20 42 41
12 22 36 45 53 52 34 16 39 29 10 29 -31 0 -23 18 11 25 19 4 27 10 20 14 -17
11 -4 36 25 49 13 7 24 20 24 30 0 23 45 66 59 57 18 -11 13 -1 -51 101 -34
55 -89 149 -121 209 -32 61 -56 102 -53 93z m66 -528 c0 -5 -5 -10 -11 -10 -5
0 -7 5 -4 10 3 6 8 10 11 10 2 0 4 -4 4 -10z m-120 -180 c0 -5 -5 -10 -11 -10
-5 0 -7 5 -4 10 3 6 8 10 11 10 2 0 4 -4 4 -10z"/>
<path d="M3235 3116 c10 -14 19 -26 22 -26 7 0 -17 39 -28 46 -6 3 -3 -5 6
-20z"/>
<path d="M3201 3114 c0 -11 3 -14 6 -6 3 7 2 16 -1 19 -3 4 -6 -2 -5 -13z"/>
<path d="M6393 2495 c0 -7 6 -11 14 -8 7 3 13 6 13 8 0 2 -6 5 -13 8 -8 3 -14
-1 -14 -8z"/>
<path d="M6335 2460 c-3 -6 1 -7 9 -4 18 7 21 14 7 14 -6 0 -13 -4 -16 -10z"/>
<path d="M6289 2433 c-13 -15 -12 -15 9 -4 23 12 28 21 13 21 -5 0 -15 -7 -22
-17z"/>
<path d="M6244 2404 c-18 -14 -18 -15 4 -4 12 6 22 13 22 15 0 8 -5 6 -26 -11z"/>
<path d="M4323 1803 c9 -2 15 -8 12 -13 -3 -4 5 -6 17 -2 21 5 21 6 2 13 -10
4 -26 7 -34 7 -10 0 -9 -2 3 -5z"/>
<path d="M5933 1782 c-71 -23 -77 -33 -11 -18 30 7 59 11 66 8 7 -2 12 1 12 6
0 6 10 8 23 6 20 -4 21 -4 2 5 -26 12 -30 12 -92 -7z"/>
<path d="M4391 1778 c6 -7 28 -14 48 -14 l36 -2 -35 13 c-47 18 -64 19 -49 3z"/>
<path d="M4488 1753 c7 -3 16 -2 19 1 4 3 -2 6 -13 5 -11 0 -14 -3 -6 -6z"/>
<path d="M5785 1740 c-28 -7 -28 -8 -5 -9 14 0 32 4 40 9 17 11 8 11 -35 0z"/>
<path d="M5548 1693 c7 -3 16 -2 19 1 4 3 -2 6 -13 5 -11 0 -14 -3 -6 -6z"/>
<path d="M5423 1683 c9 -2 25 -2 35 0 9 3 1 5 -18 5 -19 0 -27 -2 -17 -5z"/>
<path d="M3560 2016 c0 -3 9 -10 20 -16 11 -6 20 -8 20 -6 0 3 -9 10 -20 16
-11 6 -20 8 -20 6z"/>
<path d="M3522 1974 c10 -10 20 -16 22 -13 3 3 -5 11 -17 18 -21 13 -21 12 -5
-5z"/>
<path d="M3564 1975 c10 -7 15 -19 11 -25 -6 -9 -2 -9 13 -1 15 8 22 8 25 -2
3 -6 4 -2 4 10 -1 16 -5 19 -13 12 -8 -6 -14 -5 -18 6 -3 8 -13 15 -23 15 -17
-1 -17 -1 1 -15z"/>
<path d="M3624 1905 c11 -8 25 -15 30 -15 6 0 2 7 -8 15 -11 8 -25 15 -30 15
-6 0 -2 -7 8 -15z"/>
<path d="M3676 1912 c-3 -6 18 -22 48 -37 33 -16 53 -32 50 -39 -6 -16 69 -56
246 -131 252 -108 578 -195 800 -215 137 -12 158 -16 178 -36 17 -17 43 -18
39 -1 -3 17 179 17 202 0 19 -15 85 -17 76 -3 -7 12 23 19 105 24 36 2 67 5
70 7 3 1 16 3 30 4 14 2 41 5 60 9 75 14 176 28 207 29 18 0 30 3 28 7 -2 3
35 16 83 29 216 56 510 166 505 189 -2 6 4 9 12 6 7 -3 22 0 32 6 16 10 16 11
-4 7 -13 -3 -26 -1 -29 4 -3 5 1 9 8 9 22 0 138 64 138 77 0 6 16 21 35 33 60
37 38 32 -40 -9 -198 -105 -492 -213 -736 -270 -190 -45 -535 -77 -729 -67
-162 8 -373 30 -490 52 -102 20 -380 102 -503 150 -49 19 -94 31 -100 27 -5
-3 -7 -1 -4 4 9 14 -18 24 -40 16 -10 -4 -14 -2 -10 4 7 11 -89 60 -110 55 -7
-2 -13 1 -13 7 0 9 -82 61 -97 61 -4 -1 5 -8 20 -16 36 -19 30 -28 -9 -14 -16
6 -31 11 -33 10 -2 -1 -7 4 -11 10 -5 8 -10 9 -14 2z m1596 -454 c-9 -9 -15
-9 -24 0 -9 9 -7 12 12 12 19 0 21 -3 12 -12z"/>
<path d="M3745 1840 c3 -5 8 -10 11 -10 2 0 4 5 4 10 0 6 -5 10 -11 10 -5 0
-7 -4 -4 -10z"/>
<path d="M6505 1799 c-40 -25 -15 -25 27 1 18 11 26 20 18 19 -8 0 -28 -9 -45
-20z"/>
<path d="M4795 1460 c-7 -12 22 -12 50 0 17 7 15 9 -12 9 -17 1 -35 -3 -38 -9z"/>
<path d="M4903 1453 c9 -2 25 -2 35 0 9 3 1 5 -18 5 -19 0 -27 -2 -17 -5z"/>
<path d="M5330 1456 c0 -2 9 -6 20 -9 11 -3 18 -1 14 4 -5 9 -34 13 -34 5z"/>
<path d="M5498 1453 c7 -3 16 -2 19 1 4 3 -2 6 -13 5 -11 0 -14 -3 -6 -6z"/>
</g>
</svg>
